<svg width="795" height="397" fill="none" xmlns="http://www.w3.org/2000/svg"><g clip-path="url(#clip0)"><path d="M771 1H24C10.745 1 0 11.745 0 25v348c0 13.255 10.745 24 24 24h747c13.255 0 24-10.745 24-24V25c0-13.255-10.745-24-24-24z" fill="#2F2F2F"/><path d="M280.167 35.938L347.503-36h-18.992l-52.02 67.54L219.738-36h-28.795l69.118 82.128-50.905 55.902-18.213 19.209h18.937l54.971-69.432 58.48 69.432h28.795l-71.959-85.3z" fill="#EB9038"/><path d="M10.149 35.938L77.429-36H58.437L6.417 31.54-50.337-36H-79.13l69.118 82.128-50.906 55.902-18.212 19.209h18.936l54.972-69.432 58.48 69.432H82.05l-71.902-85.3z" fill="#F3C3CF"/><path d="M550.231 35.938L617.511-36h-18.936l-52.02 67.54L489.746-36h-28.794l69.173 82.128-50.905 55.902-18.268 19.209h18.992l54.971-69.432 58.48 69.432h28.739l-71.903-85.3z" fill="#8DC4F3"/><path d="M820.293 35.938L887.573-36h-18.992l-52.02 67.54L759.807-36h-28.794l69.118 82.128-50.906 55.902-18.212 19.209h18.936l54.972-69.432 58.48 69.432h28.795l-71.903-85.3z" fill="#E95B44"/><path d="M412.606 193.122l67.335-71.882h-18.992l-52.019 67.539-56.754-67.539h-28.794l69.118 82.127-50.906 55.847-18.212 19.265h18.936l54.971-69.432 58.481 69.432h28.794l-71.958-85.357z" fill="#F3C3CF"/><path d="M142.594 193.122l67.28-71.882h-18.937l-52.075 67.539-56.753-67.539H53.314l69.174 82.127-50.962 55.847-18.212 19.265h18.992l54.972-69.432 58.424 69.432h28.795l-71.903-85.357z" fill="#B7B7B7"/><path d="M4.971 350.362l67.28-71.883H53.315L1.239 345.963l-56.753-67.484H-84.31l69.174 82.072-50.961 55.903-18.213 19.209h18.992l54.972-69.432 58.424 69.432h28.794l-71.9-85.301z" fill="#8DC4F3"/><path d="M274.98 350.362l67.28-71.883h-18.937l-52.075 67.484-56.754-67.484H185.7l69.118 82.072-50.906 55.903-18.212 19.209h18.936l54.972-69.432 58.48 69.432h28.795l-71.903-85.301z" fill="#E95B44"/><path d="M544.994 350.362l67.28-71.883h-18.992l-52.019 67.484-56.754-67.484h-28.795l69.118 82.072-50.905 55.903-18.213 19.209h18.937l54.971-69.432 58.481 69.432h28.794l-71.903-85.301z" fill="#B7B7B7"/><path d="M814.947 350.362l67.335-71.883H863.29l-52.019 67.484-56.754-67.484h-28.794l69.118 82.072-50.906 55.903-18.212 19.209h18.936l54.971-69.432 58.481 69.432h28.794l-71.958-85.301z" fill="#F3C3CF"/><path d="M682.67 193.122l67.28-71.882h-18.992l-52.02 67.539-56.754-67.539H593.39l69.118 82.127-50.906 55.847-18.212 19.265h18.936l54.972-69.432 58.48 69.432h28.794l-71.902-85.357z" fill="#EB9038"/><path d="M0 235c19.882 0 36-16.118 36-36s-16.118-36-36-36-36 16.118-36 36 16.118 36 36 36z" fill="#111"/></g><defs><clipPath id="clip0"><path fill="#fff" transform="translate(0 1)" d="M0 0h795v396H0z"/></clipPath></defs></svg>