<svg width="77" height="49" fill="none" xmlns="http://www.w3.org/2000/svg"><path d="M75.332 33.667c.166-.5 4.166-13.334-2.167-23.167-3.833-5.833-10.5-9.333-20-10.167-.5 0-14-1.5-23.833 6.5-5.5 4.5-8.667 10.834-9.667 19.167l-17.5 8.167c-.167 0-.167.166-.333.166l-.167.167-.167.167c0 .166-.166.166-.166.333-.834 2.667-.5 4.667.833 5.667.667.5 1.5.833 2.5.833 3 0 7-2.167 9.5-3.5 3.167 1.5 6.833 3.667 11.167 6.5l3 1.833c2.333 1.5 5 2 7.666 2 10.5 0 21.834-9.166 24.334-11.5 1.333.167 2.5.167 3.5.167 6.833 0 10.333-2.5 10.833-2.833l.333-.334s0-.166.167-.166c0 .166.167.166.167 0zM4.165 38.333S3.998 38 4.165 37c1.833-.667 3.667-.667 5.667-.333-2.834 1.333-5.167 2-5.667 1.666zm25.833 5.334l-3-1.834c-4.666-3-8.833-5.5-12.5-7h-.166c-1-.5-2.167-.833-3.167-1L21.332 29c6.666.333 15.833 2.667 24.666 5 3.5.833 6.834 1.667 9.834 2.5-5.167 4-17.667 12.167-25.834 7.167zm27-10.5c-3.166-.667-6.5-1.667-10-2.5-8.5-2.167-17.166-4.334-24-5 1-7 3.834-12.5 8.334-16.167 8.833-7.167 21.166-5.833 21.333-5.667 8.333.834 14.167 3.667 17.5 8.667 4.833 7.333 2.667 17.333 2 19.833-1.333.5-6.333 2.834-15.167.834z" fill="url(#paint0_radial)"/><defs><radialGradient id="paint0_radial" cx="0" cy="0" r="1" gradientUnits="userSpaceOnUse" gradientTransform="matrix(0 48.1116 -75.8529 0 38.804 .222)"><stop stop-color="#EB9038"/><stop offset=".516" stop-color="#F3C3CF"/><stop offset="1" stop-color="#8DC4F3"/></radialGradient></defs></svg>