<svg width="48" height="69" fill="none" xmlns="http://www.w3.org/2000/svg"><path d="M47.333 1.833v-.666c0-.167-.166-.167-.166-.334C47.167.667 47 .667 47 .5c0 0-.167-.167-.333-.167-.167 0-.167-.166-.334-.166H1.667c-.167 0-.167.166-.334.166C1.167.333 1.167.5 1 .5 1 .5.833.667.833.833c0 .167-.166.167-.166.334v.666l3 57.667v.667c0 .166.166.166.166.333l.167.167c.167.166.167.166.333.166v5.5C4.333 67.333 5 68 6 68h8.5c1 0 1.667-.667 1.667-1.667v-5.5c.166 0 .166-.166.333-.166l.167-.167c0-.167.166-.167.166-.333 0 0 0-.167.167-.167v-.167l6.167-32.166h1.166L30.5 59.833c0 .167.167.334.167.5v.167c0 .167.166.167.333.333 0 0 .167 0 .167.167v5.5c0 1 .666 1.667 1.666 1.667h8.5c1 0 1.667-.667 1.667-1.667V61c.167 0 .167-.167.333-.167l.167-.166c0-.167.167-.167.167-.334v-.666l3.666-57.834zM13 64.833H7.833v-3.666H13v3.666zm27.167 0H35v-3.666h5.167v3.666zm.833-7h-7.167l-6.166-32.166V25.5c0-.167 0-.167-.167-.333 0-.167-.167-.167-.167-.334 0-.166-.166-.166-.166-.166-.167 0-.167-.167-.334-.167-.166 0-.166-.167-.333-.167h-4.833c-.167 0-.167 0-.334.167-.166 0-.166.167-.333.167l-.167.166s-.166.167-.166.334c0 .166-.167.166-.167.333v.167l-6.167 32.166H7.167L4.667 12.5h39L41 57.833zm2.667-48.666H4.333L4 3.5h40l-.333 5.667z" fill="url(#paint0_radial)"/><defs><radialGradient id="paint0_radial" cx="0" cy="0" r="1" gradientUnits="userSpaceOnUse" gradientTransform="matrix(0 68 -46.6667 0 24 .167)"><stop stop-color="#EB9038"/><stop offset=".516" stop-color="#F3C3CF"/><stop offset="1" stop-color="#8DC4F3"/></radialGradient></defs></svg>