<svg width="68" height="52" fill="none" xmlns="http://www.w3.org/2000/svg"><path d="M67 37.667l-10-9.834C57.167 24.667 57.5 13 51.167 6 47.833 2.333 43.333.5 37.833.5H30C24.333.5 20 2.333 16.667 6 10.333 13.167 10.833 24.667 11 27.833l-9.833 10c-.167.167-.334.334-.334.5 0 .167-.166.5-.166.667 0 8 17.333 12.333 33.5 12.333 16.166 0 33.333-4.5 33.333-12.5 0-.333-.167-.833-.5-1.166zM19.167 8.333c2.666-3 6.166-4.333 10.833-4.5h7.833c4.667 0 8.167 1.5 10.834 4.334 6.333 7 5 20 5 20v.333c0 2.333-7.667 5.833-19.5 5.833-12 0-19.667-3.333-19.667-5.666v-.334c-.167 0-1.5-13 4.667-20zm15 39.834c-17.667.166-29-4.667-30-8.334l8.166-8.166c3 4 12.334 6 21.667 6 9.333 0 18.667-2.167 21.833-6.334L64 39.5c-1 3.667-12.167 8.5-29.833 8.667z" fill="url(#paint0_radial)"/><defs><radialGradient id="paint0_radial" cx="0" cy="0" r="1" gradientUnits="userSpaceOnUse" gradientTransform="matrix(0 50.8333 -66.8333 0 34.083 .5)"><stop stop-color="#EB9038"/><stop offset=".516" stop-color="#F3C3CF"/><stop offset="1" stop-color="#8DC4F3"/></radialGradient></defs></svg>