<svg width="60" height="56" fill="none" xmlns="http://www.w3.org/2000/svg"><path d="M52.5.167H26c-4 0-7.333 3.333-7.333 7.333v.667h-2C15 5.833 12.334 4.5 9.334 4.5 4.167 4.5.167 8.667.167 13.667s4.167 9.166 9.167 9.166c3 0 5.667-1.5 7.333-3.666h2v29.5C18.667 52.667 22 56 26 56h26.5c4 0 7.334-3.333 7.334-7.333V7.5c0-4-3.334-7.333-7.334-7.333zM14.168 17c-1 1.5-2.833 2.5-4.833 2.5-3.167 0-5.834-2.667-5.834-5.833 0-3.167 2.667-5.834 5.834-5.834 2 0 3.667 1 4.833 2.5V17zm4-1.167c.167-.666.333-1.333.333-2.166 0-.667-.166-1.5-.333-2.167H21.5l4.834 1.333V14.5L21.5 15.833h-3.333zM56.501 48.5c0 2.167-1.834 4-4 4H26c-2.167 0-4-1.833-4-4V19.167h.166l6.167-1.667c.666-.167 1.166-.833 1.166-1.667v-4.166c0-.834-.5-1.334-1.166-1.667l-6.167-1.667H22v-.666c0-2.167 1.834-4 4-4h26.5c2.167 0 4 1.833 4 4V48.5z" fill="url(#paint0_radial)"/><defs><radialGradient id="paint0_radial" cx="0" cy="0" r="1" gradientUnits="userSpaceOnUse" gradientTransform="matrix(0 55.8333 -59.6667 0 30 .167)"><stop stop-color="#EB9038"/><stop offset=".516" stop-color="#F3C3CF"/><stop offset="1" stop-color="#8DC4F3"/></radialGradient></defs></svg>