<svg width="60" height="57" fill="none" xmlns="http://www.w3.org/2000/svg"><path d="M47.168 12.167V5.833c0-4.5-14.667-5.166-23.334-5.166-8.666 0-23.5.833-23.5 5.166V51.5c0 4.5 14.667 5.167 23.334 5.167 8.666 0 23.333-.667 23.333-5.167v-6.333c6.833-.834 12.167-6.834 12.167-14v-4.834c.166-7.333-5.167-13.166-12-14.166zM43.834 51c-1.5.833-8.333 2.333-20 2.333-11.666 0-18.5-1.333-20-2.333V10c4.834 1.833 13.834 2.167 20 2.167 6.167 0 15.167-.334 20-2.167v41zm0-44.667c-1.5.834-8.333 2.334-20 2.334-11.666 0-18.5-1.334-20-2.334C5.334 5.5 12.168 4 23.834 4c11.667 0 18.5 1.5 20 2.333zm12.167 24.834c0 5.333-3.833 9.833-8.833 10.666V15.667c5 .833 8.833 5.333 8.833 10.666v4.834z" fill="url(#paint0_radial)"/><defs><radialGradient id="paint0_radial" cx="0" cy="0" r="1" gradientUnits="userSpaceOnUse" gradientTransform="matrix(0 56 -58.8371 0 29.753 .667)"><stop stop-color="#EB9038"/><stop offset=".516" stop-color="#F3C3CF"/><stop offset="1" stop-color="#8DC4F3"/></radialGradient></defs></svg>