<svg width="72" height="80" fill="none" xmlns="http://www.w3.org/2000/svg"><path d="M71.666 25c0-.833-.667-1.5-1.333-1.667L47.999 12.167V7c0-4-5.333-7-12.166-7-6.834 0-12.167 3-12.167 7v5.167L1.333 23.5c-.667.167-1.334.667-1.334 1.5v45c0 1 .667 1.667 1.667 1.667h9v6.666c0 1 .667 1.667 1.667 1.667h46.666c1 0 1.667-.667 1.667-1.667V71.5H70c1 0 1.667-.667 1.667-1.667V25zM35.833 3.333c5.5 0 9 2.167 9 3.667v5.333l-9 6.667-9-6.667V7c0-1.5 3.5-3.667 9-3.667zm23.5 28c-1 0-1.667.667-1.667 1.667v43.667H14V33c0-1-.666-1.667-1.666-1.667-1 0-1.667.667-1.667 1.667v35.333H3.333V26.167l21.666-11 9.667 7.333s.167 0 .167.167c0 0 .166 0 .166.166.167.167.334.167.667.167.167 0 .5 0 .667-.167 0 0 .166 0 .166-.166 0 0 .167 0 .167-.167l9.667-7.333 21.666 11v42h-7.333V33c.333-1-.5-1.667-1.333-1.667z" fill="url(#paint0_radial)"/><defs><radialGradient id="paint0_radial" cx="0" cy="0" r="1" gradientUnits="userSpaceOnUse" gradientTransform="matrix(0 80 -71.6667 0 35.833 0)"><stop stop-color="#EB9038"/><stop offset=".516" stop-color="#F3C3CF"/><stop offset="1" stop-color="#8DC4F3"/></radialGradient></defs></svg>