<svg width="69" height="74" fill="none" xmlns="http://www.w3.org/2000/svg"><path d="M66.167 20.167h-16V16.5C50.167 7.5 42.833.333 34 .333c-8.833 0-16.167 7.334-16.167 16.167v3.667h-16c-1 0-1.666.666-1.666 1.666V61.5c0 .167 0 .5.166.667.167.166.167.333.334.5l10 10c.166.166.333.333.5.333.166.167.5.167.666.167h44.334c.166 0 .5 0 .666-.167.167 0 .334-.167.5-.333h.167l10.167-10c.166-.167.333-.334.333-.5.167-.167.167-.5.167-.667V21.833c-.334-1-1-1.666-2-1.666zm-45-3.667C21.167 9.333 27 3.667 34 3.667S46.833 9.5 46.833 16.5v3.667H21.167V16.5zM64.5 60.833l-9.167 9H12.5l-9-9V23.5h14.333v5.833c0 1 .667 1.667 1.667 1.667s1.667-.667 1.667-1.667V23.5H47v5.833c0 1 .667 1.667 1.667 1.667s1.666-.667 1.666-1.667V23.5h14.334v37.333H64.5z" fill="url(#paint0_radial)"/><defs><radialGradient id="paint0_radial" cx="0" cy="0" r="1" gradientUnits="userSpaceOnUse" gradientTransform="matrix(0 72.8333 -68 0 34.167 .333)"><stop stop-color="#EB9038"/><stop offset=".516" stop-color="#F3C3CF"/><stop offset="1" stop-color="#8DC4F3"/></radialGradient></defs></svg>