<svg width="53" height="70" fill="none" xmlns="http://www.w3.org/2000/svg"><path d="M51.002 46.5c-.167-.333-.334-.5-.5-.667-.167-.166-.167-.333-.334-.333L34.836 30.167V1.833c0-1-.666-1.666-1.666-1.666H13.335c-1 0-1.667.666-1.667 1.666V6H2.335c-1 0-1.666.667-1.666 1.667v34.5c0 2.166.833 4.333 2.5 5.833l3.5 3.5 16.166 16.167c.167.166.334.166.334.333.166.333.333.5.666.5 1.5 1 3.167 1.5 4.834 1.5 2.166 0 4.333-.833 5.833-2.5l3.5-3.5c.5.167 1.166.167 1.666.167 2.167 0 4.167-.834 5.834-2.5L50.168 57c1.5-1.5 2.5-3.667 2.5-5.833 0-1.667-.666-3.167-1.666-4.667zm-36-43.167h16.5V7.5h-7.667c0-1-.667-1.667-1.667-1.667h-7.166v-2.5zm-11 5.834h16.5v4.166h-16.5V9.167zm5.5 32.166l-2.334 6-1.666-1.666c-1-1-1.5-2.167-1.5-3.5v-4.5l4.5 1.5c.5.166.833.5 1 .833.166.333.166.833 0 1.333zM23.335 63.5L9.835 50l2.833-7.333c.5-1.334.5-2.667-.166-3.834-.5-1.166-1.667-2.166-2.834-2.666l-5.5-1.834V16.667h16.5V36.5c0 .5.167.833.5 1.167l14 14c-6 1.5-10.5 6-11.833 11.833zm13.5-2.833l-.333.333-4.167 4.167c-1.666 1.666-4.167 1.833-6 .833.5-6.167 5.334-11 11.334-11.333 1 2 .833 4.5-.834 6zm1.334-10.5L23.835 35.833v-25h7.667v19.834c0 .5.167.833.5 1.166l13.833 13.834c-3 .833-5.666 2.333-7.666 4.5zm9.666 4.666L43.17 59.5c-.667.667-1.667 1.167-2.5 1.5 1.333-2.5 1.166-5.667-.334-8 2-2.5 4.834-3.667 8.167-4 .5.667.666 1.667.666 2.5.167 1.167-.333 2.5-1.333 3.333z" fill="url(#paint0_radial)"/><defs><radialGradient id="paint0_radial" cx="0" cy="0" r="1" gradientUnits="userSpaceOnUse" gradientTransform="matrix(0 69.8333 -52 0 26.669 .167)"><stop stop-color="#EB9038"/><stop offset=".516" stop-color="#F3C3CF"/><stop offset="1" stop-color="#8DC4F3"/></radialGradient></defs></svg>