<svg width="22" height="72" fill="none" xmlns="http://www.w3.org/2000/svg"><path d="M21.166 62.667L17.333 18v-7.167l.833-6.5c.167-1-.166-1.833-.833-2.666C16.666.833 15.833.5 14.833.5H7.166c-1 0-1.833.333-2.5 1.167-.666.833-1 1.666-.833 2.666l.833 6.5v7l-3.833 45V66.5c0 2.833 2.167 5 5 5h10.333c2.834 0 5-2.167 5-5v-3.833zM14.833 3.833L14.166 9.5c-1-.333-2-.333-3.166-.333-1 0-2.167.166-3.167.333l-.667-5.667h7.667zM8 18v-5c.333-.167 1.333-.5 3-.5 1.666 0 2.666.333 3 .5v5.167l3.666 41.666c-.833.334-3.166.834-6.5.834-3.333 0-5.666-.5-6.5-.834L8 18zm9.833 48.5c0 1-.667 1.667-1.667 1.667H5.833c-1 0-1.667-.667-1.667-1.667v-3.333C6.333 63.833 9 64 11 64s4.666-.167 6.833-.833V66.5z" fill="url(#paint0_radial)"/><defs><radialGradient id="paint0_radial" cx="0" cy="0" r="1" gradientUnits="userSpaceOnUse" gradientTransform="matrix(0 71 -20.3334 0 11 .5)"><stop stop-color="#EB9038"/><stop offset=".516" stop-color="#F3C3CF"/><stop offset="1" stop-color="#8DC4F3"/></radialGradient></defs></svg>