<svg width="60" height="58" fill="none" xmlns="http://www.w3.org/2000/svg"><path d="M54.835 36.167v-13.5c0-12-9.834-21.834-21.667-21.834H27c-12 0-21.833 9.834-21.833 21.834v13.5C2.5 37.5.835 40.333.835 43.5v5.333c0 4.667 3.666 8.334 8.333 8.334H51c4.667 0 8.334-3.667 8.334-8.334V43.5c-.167-3.167-1.834-6-4.5-7.333zm-46.334-1v-12.5c0-10.167 8.334-18.5 18.5-18.5h6.167c10.167 0 18.5 8.333 18.5 18.5v12.5H8.5zm47.334 13.666c0 2.834-2.167 5-5 5H9.168c-2.833 0-5-2.166-5-5V43.5c0-2.833 2.167-5 5-5H51c2.834 0 5 2.167 5 5v5.333h-.166z" fill="url(#paint0_radial)"/><defs><radialGradient id="paint0_radial" cx="0" cy="0" r="1" gradientUnits="userSpaceOnUse" gradientTransform="matrix(0 56.3333 -58.5 0 30.085 .833)"><stop stop-color="#EB9038"/><stop offset=".516" stop-color="#F3C3CF"/><stop offset="1" stop-color="#8DC4F3"/></radialGradient></defs></svg>