<svg width="72" height="72" fill="none" xmlns="http://www.w3.org/2000/svg"><path d="M71.832 25c0-.833-.667-1.5-1.333-1.667L48.332 12.167V7c-.167-4-5.5-7-12.333-7-6.834 0-12.167 3-12.167 7v5.167L1.665 23.5c-.833.167-1.333.833-1.333 1.667v45c0 1 .667 1.666 1.667 1.666h10.666c1 0 1.667-.666 1.667-1.666v-7.5c1.333-1 8.833-2.667 21.833-2.667 13 0 20.334 1.667 21.834 2.667v7.5c0 1 .666 1.666 1.666 1.666h10.667c1 0 1.667-.666 1.667-1.666V25h-.167zM26.999 7c0-1.5 3.5-3.667 9-3.667s9 2.167 9 3.667v5.333l-9 6.667-9-6.667V7zm41.5 61.167h-7.334V33c0-1-.666-1.667-1.666-1.667-1 0-1.667.667-1.667 1.667v25.833c-1.333-.5-2.833-.833-4.833-1.166-4.5-.834-10.5-1.167-16.834-1.167-6.333 0-12.333.5-16.833 1.167-2 .333-3.667.666-4.833 1.166V33c0-1-.667-1.667-1.667-1.667S11.165 32 11.165 33v35.333H3.499V26.167l21.666-11 9.667 7.333s.167 0 .167.167c0 0 .166 0 .166.166.167.167.5.167.667.167.167 0 .5 0 .667-.167 0 0 .166 0 .166-.166 0 0 .167 0 .167-.167l9.667-7.333 21.666 11v42h.334z" fill="url(#paint0_radial)"/><defs><radialGradient id="paint0_radial" cx="0" cy="0" r="1" gradientUnits="userSpaceOnUse" gradientTransform="matrix(0 71.8333 -71.6667 0 36.165 0)"><stop stop-color="#EB9038"/><stop offset=".516" stop-color="#F3C3CF"/><stop offset="1" stop-color="#8DC4F3"/></radialGradient></defs></svg>