<svg width="208" height="32" fill="none" xmlns="http://www.w3.org/2000/svg"><g clip-path="url(#clip0)"><path d="M26.14 17.04a13.842 13.842 0 00-.103-1.475 12.967 12.967 0 00-1.137-4.11L24.665 11v-.076h-.545c-1.148.105-2.28.346-3.373.718l-.338.123v-.283A18.74 18.74 0 0019.3 7.409a16.638 16.638 0 00-1.043-2.117 18.4 18.4 0 00-2.95-3.657A13.56 13.56 0 0013.333.189l-.16-.104-.075-.047-.075.047-.15.104a15.637 15.637 0 00-4.134 4.234A19.715 19.715 0 006.634 8.41a13.918 13.918 0 00-.827 3.128v.303c0 .104-.338-.142-.94-.312l-.216-.057a20.191 20.191 0 00-3.072-.558l-.357.88c-.104.236-.207.472-.301.718a13.443 13.443 0 00-.808 5.67 15 15 0 00.639 3.45 15.853 15.853 0 005.14 7.636 11.991 11.991 0 002.612 1.691 11.222 11.222 0 004.698 1.059h.225a12.377 12.377 0 005.018-1.437c.357-.198.714-.434.724-.434.481-.314.942-.658 1.38-1.03a15.811 15.811 0 003.327-3.875 16.258 16.258 0 001.992-4.726 14.54 14.54 0 00.273-3.477zm-12.985 8.666a13.074 13.074 0 01-.695 4.12 12.7 12.7 0 01-6.982-3.78A13.467 13.467 0 012.8 21.377a12.512 12.512 0 01-.686-4.62c.07-1.18.305-2.345.696-3.46v-.057h.122c.83.15 1.645.377 2.433.68l.235.095a12.726 12.726 0 012.82 1.824 12.37 12.37 0 013.213 4.083c.178.378.329.775.423 1.011.414.925.729 1.891.94 2.883.112.623.165 1.256.159 1.89zm-.066-7.56a16.053 16.053 0 00-1.644-2.297c-.36-.43-.746-.838-1.156-1.22a14.13 14.13 0 00-1.26-1.096 16.845 16.845 0 00-1.22-.793c.07-.662.184-1.319.338-1.966a15.453 15.453 0 012.057-4.858 16.205 16.205 0 011.983-2.438c.31-.312.639-.624.94-.945a13.996 13.996 0 013.646 4.366c.54 1.045.959 2.148 1.25 3.289.213.825.36 1.665.44 2.514a14.625 14.625 0 00-3.185 2.495 15.26 15.26 0 00-2.189 2.948zm9.096 5.736a12.618 12.618 0 01-7.517 5.717 13.652 13.652 0 00.479-5.103 15.08 15.08 0 00-.94-4.045 13.48 13.48 0 011.588-2.665 12.93 12.93 0 012.115-2.192 11.555 11.555 0 015.44-2.429c.164.519.302 1.045.413 1.578a38.39 38.39 0 01.301 2.259 12.587 12.587 0 01-1.88 6.88z" fill="#F49879"/><path d="M42.124 8.024h3.758a7.866 7.866 0 014.21 1.001 3.798 3.798 0 011.672 3.298 3.321 3.321 0 01-.642 2.073 3.289 3.289 0 01-1.782 1.226c2.04.614 3.082 1.89 3.082 3.78a4.138 4.138 0 01-.689 2.352 4.1 4.1 0 01-1.895 1.542c-1.336.47-2.748.685-4.162.633h-3.58V8.024h.028zm6.577 2.504a6.291 6.291 0 00-3.326-.595h-1.09v4.924h1.513c2.377 0 3.758-.757 3.758-2.41a2.06 2.06 0 00-.845-1.919h-.01zm-1.879 6.237h-2.537v5.283h1.203a8.214 8.214 0 003.354-.482c.405-.177.745-.475.976-.854.23-.379.339-.82.312-1.262.009-1.588-1.147-2.675-3.299-2.675l-.009-.01zm21.706 7.476a8.16 8.16 0 01-4.563-1.37 8.23 8.23 0 01-3.034-3.691 8.285 8.285 0 01-.482-4.764 8.256 8.256 0 012.234-4.23 8.179 8.179 0 014.195-2.266 8.15 8.15 0 014.739.463 8.204 8.204 0 013.683 3.035A8.275 8.275 0 0176.684 16a8.19 8.19 0 01-.595 3.16 8.151 8.151 0 01-1.764 2.682 8.094 8.094 0 01-2.659 1.786 8.058 8.058 0 01-3.138.613zm0-14.526c-3.374 0-5.845 2.76-5.845 6.285 0 3.525 2.471 6.285 5.845 6.285 3.373 0 5.844-2.76 5.844-6.285 0-3.525-2.471-6.294-5.844-6.294v.01zm27.54 14.252l-8.691-11.889v11.889h-2.17V8.024h1.878l8.72 11.889V8.023h2.17v15.944h-1.906zm13.851-6.767v6.814h-2.171V8.024h8.043V9.98h-5.863v5.217h5.863V17.2h-5.872zm14.442 6.767V8.024h2.17v15.943h-2.17zm20.456 0l-4.755-6.767h-1.635v6.739h-2.17V8.024h4.698c2.424 0 5.412 1.275 5.412 4.574a4.502 4.502 0 01-1.091 2.98 4.458 4.458 0 01-2.78 1.509l5.027 6.88h-2.716.01zM140.851 9.98h-2.424v5.33h1.973c2.105 0 3.665-.775 3.665-2.599 0-1.654-1.287-2.731-3.214-2.731zm14.64 13.987V8.024h9.518V9.98h-7.338v4.782h7.338v1.956h-7.338v5.283h7.338v1.956h-9.518v.01z" fill="#fff"/></g><path d="M197.591 14.845l9.212-9.723h-2.597l-7.119 9.13-7.764-9.13h-3.943l9.461 11.103-6.967 7.549-2.494 2.602h2.596l7.522-9.382 8 9.382h3.936l-9.843-11.531z" fill="url(#paint0_radial)"/><defs><radialGradient id="paint0_radial" cx="0" cy="0" r="1" gradientUnits="userSpaceOnUse" gradientTransform="matrix(0 21.2536 -22.0543 0 196.407 5.122)"><stop stop-color="#EB9038"/><stop offset=".516" stop-color="#F3C3CF"/><stop offset="1" stop-color="#8DC4F3"/></radialGradient><clipPath id="clip0"><path fill="#fff" d="M0 0h165v32H0z"/></clipPath></defs></svg>