<svg width="103" height="46" fill="none" xmlns="http://www.w3.org/2000/svg"><path fill-rule="evenodd" clip-rule="evenodd" d="M.04 45.91c.243.26-.11-.142-.027-.004.744-.051 1.76-.343 2.44-.64.27-.118.964-.58 1.2-.636.377-.091 1.074.103 1.364-.003 1.141-.414 2.291-1.452 3.027-2.07.905-.762 2.36-1.674 3.104-2.742.49-.705.582-1.553 1.197-2.139.75-.712 2.3-1.183 3.288-1.567 2.48-.964 4.017-2.719 6.268-4.157-.143 1.157-1.093 1.912-.509 3.148.457.97 1.108 1.022 1.963 1.321.382.133 1.012-.018 1.34.155.371.195.313 1.036.796 1.188.813.256 2.504-.956 3.28-1.167 1.22-.334 1.505.142 2.62.334 1.425.245 1.918-.448 2.98-1.189 1.996-1.393 5.028-1.375 6.992-2.906.087.335.41.598.457.975 1.497-.017 2.922-2.478 3.35-3.781.287-.876.25-1.744.42-2.59.056-.273-.338-.268-.122-.772.168-.389 1.185-.99 1.512-1.396 1.25-1.55 1.793-3.27 2.607-5.036.524-1.14 1.538-1.971 2.074-3.073.367-.757.354-1.494.593-2.269 1.015 1.733 2.118 3.82 4.568 2.726 2.462-1.099 2.737-4.771 4.58-6.55 1.306 1.902 4.87-3.139 5.546-4.02.788-1.029 1.369-1.84 1.561-3.01.054-.33-.238-.952-.118-1.401.166-.627.953-1.257 1.3-1.818 1.141.704 1.672 1.866 3.085 2.51.425.193 2.966 1.65 3.198 1.614 1.099-.165.603-3.61 2.788-2.184.892.581 1.096 2.26-.03 2.617.608.796 1.407.387 2.259.519a8.549 8.549 0 014.122 1.884c1.41 1.178.78 3.018-.374 4.116-.571.541-1.296.477-1.759 1.245-.293.487-.503 1.687-.607 2.264-.556 3.085.966 4.035 3.415 1.969.198 1.261.73 2.79 2.122 3.246 1.59.52 2.923-.018 4.266.986 1.144.852 2.425 1.949 3.536 2.938.77.684.84.06.937 1.365.056.762-.236 1.812-.431 2.56-.99-.066-1.618-1.225-2.285-1.904-.933-.951-1.84-1.604-3.082-2.099-1.033 2.035-.326 1.841 1.171 3.071.778.64 1.306 1.477 2.078 2.237.717.709 2.227 1.363 2.658 2.19.508.975-.389 2.937-1.181 1.275-.801.61-1.263 1.656-.326 2.238-.345.14-.604.541-.986.655.895.575.839 1.411 1.42 2.215.357.495 2.023 1.153.032 1.66-1.59.405-2.752-4.836-4.366-2.695-.844 1.12 3.373 3.778 4.393 4.02.932.22 1.324-.265 2.202-.125.314.05.276.803.8.874.364.047 1.054-.468 1.355-.625.809.844 1.405 1.577 1.903 2.675.429.944.4 2.107.143 1.662L.04 45.911z" fill="#4E5963"/></svg>