<svg width="24" height="34" fill="none" xmlns="http://www.w3.org/2000/svg"><path d="M23.289 18.104a17.453 17.453 0 00-.092-1.566 15.885 15.885 0 00-1.013-4.368l-.21-.482v-.08h-.485a11.231 11.231 0 00-3.005.763l-.302.13v-.3a23.003 23.003 0 00-.987-4.329 19.268 19.268 0 00-.93-2.249 19.328 19.328 0 00-2.628-3.886A12.451 12.451 0 0011.879.201l-.142-.11L11.67.04l-.067.05-.134.11c-1.456 1.205-2.706 2.732-3.684 4.5A22.581 22.581 0 005.91 8.936a17.16 17.16 0 00-.737 3.323v.322c0 .11-.3-.15-.837-.332l-.192-.06a15.39 15.39 0 00-2.738-.592l-.318.933c-.092.252-.184.502-.268.764a16.828 16.828 0 00-.72 6.024c.07 1.245.26 2.475.57 3.666.822 3.189 2.416 6.013 4.579 8.113.707.718 1.49 1.322 2.327 1.797a8.677 8.677 0 004.186 1.125h.2c1.564-.124 3.088-.644 4.47-1.526.319-.211.637-.462.645-.462.43-.334.84-.7 1.231-1.095a16.362 16.362 0 002.963-4.117c.81-1.55 1.41-3.244 1.775-5.02.205-1.216.287-2.457.243-3.696zm-11.57 9.208a16.326 16.326 0 01-.619 4.378c-2.377-.51-4.556-1.917-6.22-4.016-1.066-1.444-1.877-3.13-2.385-4.96a15.663 15.663 0 01-.611-4.91c.062-1.255.27-2.491.619-3.676v-.06h.109c.74.158 1.466.4 2.168.723l.21.1c.904.51 1.748 1.162 2.51 1.938 1.2 1.186 2.177 2.665 2.864 4.338.159.402.293.823.376 1.074.37.983.65 2.01.838 3.063.1.663.148 1.335.142 2.008zm-.058-8.033a17.455 17.455 0 00-1.465-2.44 13.36 13.36 0 00-1.03-1.295 13.547 13.547 0 00-1.121-1.165c-.352-.301-.72-.582-1.088-.843.063-.704.164-1.401.3-2.089.36-1.834.98-3.58 1.834-5.161a16.997 16.997 0 011.767-2.59c.276-.332.569-.664.837-1.005 1.336 1.263 2.441 2.842 3.248 4.64a18.48 18.48 0 011.113 3.494c.19.876.322 1.769.394 2.67a13.659 13.659 0 00-2.838 2.651 16.356 16.356 0 00-1.95 3.133zm8.104 6.095c-1.494 2.988-3.894 5.165-6.697 6.075.211-.869.354-1.76.427-2.66a18.648 18.648 0 00-.837-7.059 15.123 15.123 0 011.414-2.832 12.999 12.999 0 011.884-2.33c.731-.7 1.536-1.28 2.394-1.727a9.074 9.074 0 012.453-.853c.146.55.269 1.11.368 1.676.176 1.296.26 2.3.268 2.4.044 2.58-.538 5.12-1.674 7.31z" fill="#F49879"/></svg>